<svg xmlns="http://www.w3.org/2000/svg" viewBox="0 0 24 24" fill="currentColor">
  <path d="M12 .5A12 12 0 000 12.7c0 5.4 3.4 10 8.2 11.6.6.1.8-.3.8-.6v-2.3c-3.3.7-4-1.6-4-1.6-.6-1.5-1.4-1.9-1.4-1.9-1.1-.8.1-.8.1-.8 1.2.1 1.8 1.3 1.8 1.3 1.1 1.9 2.9 1.4 3.6 1.1.1-.8.4-1.4.8-1.7-2.7-.3-5.5-1.4-5.5-6.2 0-1.4.5-2.5 1.3-3.4-.1-.3-.6-1.6.1-3.3 0 0 1.1-.4 3.5 1.3a11.8 11.8 0 016.4 0c2.4-1.7 3.5-1.3 3.5-1.3.7 1.7.2 3 .1 3.3.8.9 1.3 2 1.3 3.4 0 4.8-2.8 5.9-5.5 6.2.4.4.9 1.1.9 2.3v3.4c0 .3.2.7.8.6A12.2 12.2 0 0024 12.7 12 12 0 0012 .5z"/>
</svg>
